<svg id="racket" enable-background="new 0 0 512 512"  viewBox="0 0 512 512"  xmlns="http://www.w3.org/2000/svg"><path d="m391 391c-33.084 0-60 26.916-60 60s26.916 60 60 60 60-26.916 60-60-26.916-60-60-60z"/><path d="m13.19 432.627c-17.588 17.588-17.585 46.029 0 63.614l2.57 2.57c17.588 17.588 46.029 17.585 63.614 0l116.619-116.609-66.184-66.184z"/><path d="m477.465 34.537c-56.99-56.99-160.497-40.957-231.213 29.759-83.515 83.514-50.361 152.376-96.735 228.994l21.638 21.648c9.575-13.883 17.389-32.121 23.523-50.061 11.205 22.961 29.485 41.235 52.396 52.428-18.78 6.466-36.924 14.399-50.041 23.51l21.638 21.638c75.736-46.255 145.353-13.022 229.035-96.704 70.762-70.76 86.713-174.26 29.759-231.212zm-41.494 6.365c14.519 7.607 26.097 18.851 34.065 33.129h-34.065zm-184.991 63.126h5.008v46.995h-32.556c6.591-16.366 15.892-32.245 27.548-46.995zm-37.389 122.198c-2.543-14.768-1.956-30.108.941-45.205h41.456v44.996c-43.745 0-40.563-.087-42.397.209zm10.332 29.788h32.065v32.065c-13.569-7.572-24.478-18.469-32.065-32.065zm107.058 41.455c-14.921 2.862-30.203 3.494-44.996.978v-42.434h44.996zm0-71.452h-44.996v-44.996h44.996zm0-74.993h-44.996v-46.995h44.996zm0-76.993h-44.996v-5.008c14.147-11.181 29.335-20.187 44.996-26.721zm74.993 188.56c-14.18 10.926-29.367 19.685-44.996 25.979v-32.556h44.996zm0-36.574h-44.996v-44.996h44.996zm0-74.993h-44.996v-46.995h44.996zm0-76.993h-44.996v-41.052c14.843-3.055 29.89-3.957 44.996-1.682zm36.899 152.119c-1.353-.172-1.417-.134-6.902-.134v-44.996h33.728c-6.554 15.711-15.596 30.945-26.826 45.13zm36.151-75.126h-43.053v-46.995h44.434c2.63 15.462 1.823 31.428-1.381 46.995z"/></svg>